<svg id="Capa_1" enable-background="new 0 0 512 512" height="512" viewBox="0 0 512 512" width="512" xmlns="http://www.w3.org/2000/svg"><g><g><path d="m296.988 78.125-296.988 296.988 438.379-143.953s-101.727-113.37-141.391-153.035z" fill="#f8e884"/><path d="m0 375.113h196.923 2.385v36.328c0 18.474 14.976 33.45 33.45 33.45 18.474 0 33.45-14.976 33.45-33.45v54.035c0 18.474 14.976 33.45 33.45 33.45 18.474 0 33.45-14.976 33.45-33.45v-90.362h2.385 84.511c0-56.094 1.71-174.68 1.71-174.68z" fill="#eec157"/></g><g><g><g><path d="m267.887 170.434h30v30h-30z" fill="#00cc76"/></g><g><path d="m258.639 303.071h30v30h-30z" fill="#009959"/></g></g></g><g><path d="m369.322 196.973c-26.433 0-48.129 20.239-50.463 46.064h50.463l32.422-34.332c-8.788-7.323-20.089-11.732-32.422-11.732z" fill="#dd4e4e"/><path d="m401.744 208.705-82.885 34.332c-.138 1.522-.219 3.06-.219 4.617 0 27.991 22.691 50.682 50.682 50.682s50.682-22.691 50.682-50.682c0-15.656-7.104-29.652-18.26-38.949z" fill="#c53232"/><path d="m164.834 231.16c-27.991 0-50.682 22.691-50.682 50.682 0 15.462 6.933 29.298 17.849 38.594l45.79-6.659 37.547-27.86c.107-1.346.177-2.702.177-4.075.001-27.991-22.69-50.682-50.681-50.682z" fill="#dd4e4e"/></g><g><path d="m362.039 13.074-65.051 65.051c39.664 39.664 70.418 85.865 91.256 136.172h50.135l34.763-35.166c-25.95-62.577-63.944-118.897-111.103-166.057z" fill="#a06b2e"/><path d="m388.244 214.297c20.838 50.308 31.76 104.722 31.76 160.816h91.996c0-69.422-13.825-135.613-38.859-195.982z" fill="#713e21"/></g><path d="m164.834 332.524c26.618 0 48.427-20.524 50.505-46.607l-83.337 34.519c8.845 7.533 20.304 12.088 32.832 12.088z" fill="#c53232"/></g></svg>